<?xml version="1.0" encoding="UTF-8" standalone="no"?>
<svg
   xmlns:dc="http://purl.org/dc/elements/1.1/"
   xmlns:cc="http://creativecommons.org/ns#"
   xmlns:rdf="http://www.w3.org/1999/02/22-rdf-syntax-ns#"
   xmlns:svg="http://www.w3.org/2000/svg"
   xmlns="http://www.w3.org/2000/svg"
   xmlns:sodipodi="http://sodipodi.sourceforge.net/DTD/sodipodi-0.dtd"
   xmlns:inkscape="http://www.inkscape.org/namespaces/inkscape"
   enable-background="new 0 0 32 32"
   id="Glyph"
   version="1.1"
   viewBox="0 0 36 36"
   xml:space="preserve"
   sodipodi:docname="magnifying_glass_plus_36.svg"
   inkscape:version="0.92.4 (5da689c313, 2019-01-14)"
   width="36"
   height="36"
   inkscape:export-filename="magnifying_glass_plus_36.png"
   inkscape:export-xdpi="96"
   inkscape:export-ydpi="96"><metadata
     id="metadata9"><rdf:RDF><cc:Work
         rdf:about=""><dc:format>image/svg+xml</dc:format><dc:type
           rdf:resource="http://purl.org/dc/dcmitype/StillImage" /><dc:title /></cc:Work></rdf:RDF></metadata><defs
     id="defs7" /><sodipodi:namedview
     pagecolor="#ffffff"
     bordercolor="#666666"
     borderopacity="1"
     objecttolerance="10"
     gridtolerance="10"
     guidetolerance="10"
     inkscape:pageopacity="0"
     inkscape:pageshadow="2"
     inkscape:window-width="1920"
     inkscape:window-height="1018"
     id="namedview5"
     showgrid="true"
     inkscape:snap-bbox="true"
     inkscape:zoom="10.429825"
     inkscape:cx="-44.624786"
     inkscape:cy="16.646171"
     inkscape:window-x="-8"
     inkscape:window-y="-8"
     inkscape:window-maximized="1"
     inkscape:current-layer="Glyph"><inkscape:grid
       type="xygrid"
       id="grid4522" /></sodipodi:namedview><path
     d="m 34.170178,30.163804 -7.192489,-7.192492 c 1.486097,-2.239772 2.35594,-4.921551 2.35594,-7.804497 C 29.333629,7.3552325 22.978396,1 15.166815,1 7.3552329,1 1,7.3552325 1,15.166815 c 0,7.811581 6.3552329,14.166814 14.166815,14.166814 2.882946,0 5.564725,-0.869843 7.804497,-2.35594 l 7.192492,7.192489 c 1.105012,1.106429 2.901363,1.106429 4.006374,0 1.106429,-1.106427 1.106429,-2.899945 0,-4.006374 z M 5.2500445,15.166815 c 0,-5.4683909 4.4483797,-9.9167705 9.9167705,-9.9167705 5.468389,0 9.91677,4.4483796 9.91677,9.9167705 0,5.468389 -4.448381,9.91677 -9.91677,9.91677 -5.4683908,0 -9.9167705,-4.448381 -9.9167705,-9.91677 z"
     id="XMLID_227_"
     inkscape:connector-curvature="0"
     style="stroke-width:1.41668141" /><path
     d="m 22.250222,15.166815 c 0,0.782008 -0.634673,1.41668 -1.416681,1.41668 h -4.250045 v 4.250046 c 0,0.782008 -0.634673,1.416681 -1.416681,1.416681 -0.782008,0 -1.416682,-0.634673 -1.416682,-1.416681 V 16.583495 H 9.5000887 c -0.7820081,0 -1.4166814,-0.634672 -1.4166814,-1.41668 0,-0.782008 0.6346733,-1.416683 1.4166814,-1.416683 H 13.750133 V 9.5000885 c 0,-0.7820079 0.634674,-1.4166814 1.416682,-1.4166814 0.782008,0 1.416681,0.6346735 1.416681,1.4166814 v 4.2500435 h 4.250045 c 0.782008,0 1.416681,0.634675 1.416681,1.416683 z"
     id="XMLID_230_"
     inkscape:connector-curvature="0"
     style="stroke-width:1.41668141" /></svg>