<?xml version="1.0" encoding="UTF-8" standalone="no"?>
<svg
   xmlns:dc="http://purl.org/dc/elements/1.1/"
   xmlns:cc="http://creativecommons.org/ns#"
   xmlns:rdf="http://www.w3.org/1999/02/22-rdf-syntax-ns#"
   xmlns:svg="http://www.w3.org/2000/svg"
   xmlns="http://www.w3.org/2000/svg"
   xmlns:sodipodi="http://sodipodi.sourceforge.net/DTD/sodipodi-0.dtd"
   xmlns:inkscape="http://www.inkscape.org/namespaces/inkscape"
   enable-background="new 0 0 32 32"
   id="Glyph"
   version="1.1"
   viewBox="0 0 16 16"
   xml:space="preserve"
   sodipodi:docname="magnifying_glass_plus_16.svg"
   inkscape:version="0.92.4 (5da689c313, 2019-01-14)"
   width="16"
   height="16"
   inkscape:export-filename="magnifying_glass_plus_16.png"
   inkscape:export-xdpi="96"
   inkscape:export-ydpi="96"><metadata
     id="metadata9"><rdf:RDF><cc:Work
         rdf:about=""><dc:format>image/svg+xml</dc:format><dc:type
           rdf:resource="http://purl.org/dc/dcmitype/StillImage" /><dc:title /></cc:Work></rdf:RDF></metadata><defs
     id="defs7" /><sodipodi:namedview
     pagecolor="#ffffff"
     bordercolor="#666666"
     borderopacity="1"
     objecttolerance="10"
     gridtolerance="10"
     guidetolerance="10"
     inkscape:pageopacity="0"
     inkscape:pageshadow="2"
     inkscape:window-width="1920"
     inkscape:window-height="1018"
     id="namedview5"
     showgrid="true"
     inkscape:snap-bbox="true"
     inkscape:zoom="11.91033"
     inkscape:cx="-71.805068"
     inkscape:cy="8.8021965"
     inkscape:window-x="-8"
     inkscape:window-y="-8"
     inkscape:window-maximized="1"
     inkscape:current-layer="Glyph"><inkscape:grid
       type="xygrid"
       id="grid4522" /></sodipodi:namedview><path
     d="m 14.658309,12.997787 -2.961613,-2.961615 c 0.611922,-0.9222584 0.970093,-2.0265205 0.970093,-3.2136155 0,-3.2165343 -2.616861,-5.83339494 -5.8333943,-5.83339494 C 3.6168606,0.98916162 1,3.6060222 1,6.8225565 1,10.03909 3.6168606,12.655951 6.8333947,12.655951 c 1.1870957,0 2.2913571,-0.358171 3.2136163,-0.970094 l 2.961615,2.961613 c 0.455005,0.455589 1.194678,0.455589 1.649683,0 0.455588,-0.455587 0.455588,-1.194095 0,-1.649683 z M 2.7500183,6.8225565 c 0,-2.2516908 1.8316858,-4.0833766 4.0833764,-4.0833766 2.2516894,0 4.0833753,1.8316858 4.0833753,4.0833766 0,2.2516893 -1.8316859,4.0833755 -4.0833753,4.0833755 -2.2516906,0 -4.0833764,-1.8316862 -4.0833764,-4.0833755 z"
     id="XMLID_227_"
     inkscape:connector-curvature="0"
     style="stroke-width:0.58333939" /><path
     style="opacity:1;fill:#000000;fill-opacity:1;stroke:none;stroke-width:1.10000002;stroke-linecap:butt;stroke-miterlimit:4;stroke-dasharray:none;stroke-opacity:1"
     d="m 6,4 h 2 v 6 H 6 Z"
     id="rect4524" /><path
     inkscape:connector-curvature="0"
     style="opacity:1;fill:#000000;fill-opacity:1;stroke:none;stroke-width:1.10000002;stroke-linecap:butt;stroke-miterlimit:4;stroke-dasharray:none;stroke-opacity:1"
     d="m 4,6 h 6 V 8 H 4 Z"
     id="rect4524-4" /></svg>