<?xml version="1.0" encoding="UTF-8" standalone="no"?>
<svg
   xmlns:dc="http://purl.org/dc/elements/1.1/"
   xmlns:cc="http://creativecommons.org/ns#"
   xmlns:rdf="http://www.w3.org/1999/02/22-rdf-syntax-ns#"
   xmlns:svg="http://www.w3.org/2000/svg"
   xmlns="http://www.w3.org/2000/svg"
   xmlns:sodipodi="http://sodipodi.sourceforge.net/DTD/sodipodi-0.dtd"
   xmlns:inkscape="http://www.inkscape.org/namespaces/inkscape"
   enable-background="new 0 0 32 32"
   id="Glyph"
   version="1.1"
   viewBox="0 0 24 24"
   xml:space="preserve"
   sodipodi:docname="magnifying_glass_plus_24.svg"
   inkscape:version="0.92.4 (5da689c313, 2019-01-14)"
   width="24"
   height="24"
   inkscape:export-filename="magnifying_glass_plus_24.png"
   inkscape:export-xdpi="96"
   inkscape:export-ydpi="96"><metadata
     id="metadata9"><rdf:RDF><cc:Work
         rdf:about=""><dc:format>image/svg+xml</dc:format><dc:type
           rdf:resource="http://purl.org/dc/dcmitype/StillImage" /><dc:title /></cc:Work></rdf:RDF></metadata><defs
     id="defs7" /><sodipodi:namedview
     pagecolor="#ffffff"
     bordercolor="#666666"
     borderopacity="1"
     objecttolerance="10"
     gridtolerance="10"
     guidetolerance="10"
     inkscape:pageopacity="0"
     inkscape:pageshadow="2"
     inkscape:window-width="1920"
     inkscape:window-height="1018"
     id="namedview5"
     showgrid="true"
     inkscape:snap-bbox="true"
     inkscape:zoom="14.75"
     inkscape:cx="-29.44236"
     inkscape:cy="10.066228"
     inkscape:window-x="-8"
     inkscape:window-y="-8"
     inkscape:window-maximized="1"
     inkscape:current-layer="Glyph"><inkscape:grid
       type="xygrid"
       id="grid4522" /></sodipodi:namedview><path
     d="m 22.463056,19.859858 -4.653963,-4.653965 c 0.961592,-1.449264 1.524432,-3.184533 1.524432,-5.049968 0,-5.0545537 -4.11221,-9.16676325 -9.166762,-9.16676325 C 5.1122095,0.98916175 1,5.1013713 1,10.155925 c 0,5.054552 4.1122095,9.166762 9.166763,9.166762 1.865436,0 3.600704,-0.56284 5.049969,-1.524432 l 4.653965,4.653963 c 0.715008,0.715925 1.877352,0.715925 2.592359,0 0.715925,-0.715923 0.715925,-1.876435 0,-2.59236 z M 3.7500288,10.155925 c 0,-3.5383711 2.8783633,-6.4167345 6.4167342,-6.4167345 3.538369,0 6.416733,2.8783634 6.416733,6.4167345 0,3.538369 -2.878364,6.416733 -6.416733,6.416733 -3.5383709,0 -6.4167342,-2.878364 -6.4167342,-6.416733 z"
     id="XMLID_227_"
     inkscape:connector-curvature="0"
     style="stroke-width:0.91667622" /><path
     d="m 14.750144,10.155925 c 0,0.506005 -0.410671,0.916675 -0.916676,0.916675 h -2.75003 v 2.750029 c 0,0.506006 -0.41067,0.916677 -0.916675,0.916677 -0.5060053,0 -0.9166771,-0.410671 -0.9166771,-0.916677 V 11.0726 H 6.5000574 c -0.5060052,0 -0.9166762,-0.41067 -0.9166762,-0.916675 0,-0.5060056 0.410671,-0.9166774 0.9166762,-0.9166774 H 9.2500859 V 6.4892191 c 0,-0.5060052 0.4106718,-0.9166762 0.9166771,-0.9166762 0.506005,0 0.916675,0.410671 0.916675,0.9166762 v 2.7500285 h 2.75003 c 0.506005,0 0.916676,0.4106718 0.916676,0.9166774 z"
     id="XMLID_230_"
     inkscape:connector-curvature="0"
     style="stroke-width:0.91667622" /></svg>