<?xml version="1.0" encoding="UTF-8" standalone="no"?>
<svg
   xmlns:dc="http://purl.org/dc/elements/1.1/"
   xmlns:cc="http://creativecommons.org/ns#"
   xmlns:rdf="http://www.w3.org/1999/02/22-rdf-syntax-ns#"
   xmlns:svg="http://www.w3.org/2000/svg"
   xmlns="http://www.w3.org/2000/svg"
   xmlns:sodipodi="http://sodipodi.sourceforge.net/DTD/sodipodi-0.dtd"
   xmlns:inkscape="http://www.inkscape.org/namespaces/inkscape"
   enable-background="new 0 0 32 32"
   id="Glyph"
   version="1.1"
   viewBox="0 0 48 48"
   xml:space="preserve"
   sodipodi:docname="magnifying_glass_plus_48.svg"
   inkscape:version="0.92.4 (5da689c313, 2019-01-14)"
   width="48"
   height="48"
   inkscape:export-filename="magnifying_glass_plus_48..png"
   inkscape:export-xdpi="96"
   inkscape:export-ydpi="96"><metadata
     id="metadata9"><rdf:RDF><cc:Work
         rdf:about=""><dc:format>image/svg+xml</dc:format><dc:type
           rdf:resource="http://purl.org/dc/dcmitype/StillImage" /><dc:title></dc:title></cc:Work></rdf:RDF></metadata><defs
     id="defs7" /><sodipodi:namedview
     pagecolor="#ffffff"
     bordercolor="#666666"
     borderopacity="1"
     objecttolerance="10"
     gridtolerance="10"
     guidetolerance="10"
     inkscape:pageopacity="0"
     inkscape:pageshadow="2"
     inkscape:window-width="1920"
     inkscape:window-height="1018"
     id="namedview5"
     showgrid="true"
     inkscape:snap-bbox="true"
     inkscape:zoom="10.429825"
     inkscape:cx="18.415581"
     inkscape:cy="16.646171"
     inkscape:window-x="-8"
     inkscape:window-y="-8"
     inkscape:window-maximized="1"
     inkscape:current-layer="Glyph"><inkscape:grid
       type="xygrid"
       id="grid4522" /></sodipodi:namedview><path
     d="m 45.8773,40.456911 -9.731015,-9.731018 c 2.010602,-3.03028 3.187449,-6.658569 3.187449,-10.559026 0,-10.5686121 -8.598257,-19.16686725 -19.166867,-19.16686725 C 9.5982563,0.99999975 1,9.5982549 1,20.166867 c 0,10.56861 8.5982563,19.166866 19.166867,19.166866 3.900457,0 7.528746,-1.176846 10.559026,-3.187448 l 9.731019,9.731015 c 1.495016,1.496933 3.925373,1.496933 5.420388,0 1.496933,-1.496931 1.496933,-3.923455 0,-5.420389 z M 6.7500602,20.166867 c 0,-7.398411 6.0183958,-13.4168063 13.4168068,-13.4168063 7.398409,0 13.416807,6.0183953 13.416807,13.4168063 0,7.398409 -6.018398,13.416807 -13.416807,13.416807 -7.398411,0 -13.4168068,-6.018398 -13.4168068,-13.416807 z"
     id="XMLID_227_"
     inkscape:connector-curvature="0"
     style="stroke-width:1.91668665" /><path
     d="m 29.750301,20.166867 c 0,1.058011 -0.858676,1.916685 -1.916687,1.916685 h -5.75006 v 5.750062 c 0,1.058011 -0.858676,1.916686 -1.916687,1.916686 -1.05801,0 -1.916687,-0.858675 -1.916687,-1.916686 v -5.750062 h -5.75006 c -1.058011,0 -1.916687,-0.858674 -1.916687,-1.916685 0,-1.058011 0.858676,-1.916689 1.916687,-1.916689 h 5.75006 v -5.750059 c 0,-1.05801 0.858677,-1.916686 1.916687,-1.916686 1.058011,0 1.916687,0.858676 1.916687,1.916686 v 5.750059 h 5.75006 c 1.058011,0 1.916687,0.858678 1.916687,1.916689 z"
     id="XMLID_230_"
     inkscape:connector-curvature="0"
     style="stroke-width:1.91668665" /></svg>