<?xml version="1.0" encoding="UTF-8" standalone="no"?>
<svg
   xmlns:dc="http://purl.org/dc/elements/1.1/"
   xmlns:cc="http://creativecommons.org/ns#"
   xmlns:rdf="http://www.w3.org/1999/02/22-rdf-syntax-ns#"
   xmlns:svg="http://www.w3.org/2000/svg"
   xmlns="http://www.w3.org/2000/svg"
   xmlns:sodipodi="http://sodipodi.sourceforge.net/DTD/sodipodi-0.dtd"
   xmlns:inkscape="http://www.inkscape.org/namespaces/inkscape"
   enable-background="new 0 0 32 32"
   id="Glyph"
   version="1.1"
   viewBox="0 0 32 32"
   xml:space="preserve"
   sodipodi:docname="magnifying_glass_plus_32.svg"
   inkscape:version="0.92.4 (5da689c313, 2019-01-14)"
   inkscape:export-filename="magnifying_glass_plus_32.png"
   inkscape:export-xdpi="96"
   inkscape:export-ydpi="96"><metadata
     id="metadata9"><rdf:RDF><cc:Work
         rdf:about=""><dc:format>image/svg+xml</dc:format><dc:type
           rdf:resource="http://purl.org/dc/dcmitype/StillImage" /><dc:title /></cc:Work></rdf:RDF></metadata><defs
     id="defs7" /><sodipodi:namedview
     pagecolor="#ffffff"
     bordercolor="#666666"
     borderopacity="1"
     objecttolerance="10"
     gridtolerance="10"
     guidetolerance="10"
     inkscape:pageopacity="0"
     inkscape:pageshadow="2"
     inkscape:window-width="1920"
     inkscape:window-height="1018"
     id="namedview5"
     showgrid="true"
     inkscape:snap-bbox="true"
     inkscape:zoom="14.75"
     inkscape:cx="-29.44236"
     inkscape:cy="10.066228"
     inkscape:window-x="-8"
     inkscape:window-y="-8"
     inkscape:window-maximized="1"
     inkscape:current-layer="Glyph"><inkscape:grid
       type="xygrid"
       id="grid4522" /></sodipodi:namedview><path
     d="M 30.267804,26.72193 23.92149,20.375614 c 1.311262,-1.97627 2.078771,-4.342545 2.078771,-6.886321 0,-6.8925726 -5.607559,-12.500131 -12.50013,-12.500131 C 6.6075584,0.989162 1,6.5967204 1,13.489293 c 0,6.892571 5.6075584,12.50013 12.500131,12.50013 2.543776,0 4.910051,-0.767509 6.886321,-2.078771 l 6.346316,6.346314 c 0.975011,0.976261 2.560026,0.976261 3.535036,0 0.976261,-0.976259 0.976261,-2.558775 0,-3.535036 z M 4.7500392,13.489293 c 0,-4.8250509 3.9250409,-8.7500918 8.7500918,-8.7500918 4.825049,0 8.750091,3.9250409 8.750091,8.7500918 0,4.825049 -3.925042,8.750091 -8.750091,8.750091 -4.8250509,0 -8.7500918,-3.925042 -8.7500918,-8.750091 z"
     id="XMLID_227_"
     inkscape:connector-curvature="0"
     style="stroke-width:1.25001299" /><path
     d="m 19.750196,13.489293 c 0,0.690007 -0.560006,1.250012 -1.250013,1.250012 h -3.75004 v 3.75004 c 0,0.690007 -0.560005,1.250013 -1.250012,1.250013 -0.690007,0 -1.250014,-0.560006 -1.250014,-1.250013 v -3.75004 H 8.5000782 c -0.6900071,0 -1.250013,-0.560005 -1.250013,-1.250012 0,-0.690007 0.5600059,-1.250014 1.250013,-1.250014 H 12.250117 V 8.4892402 c 0,-0.6900071 0.560007,-1.250013 1.250014,-1.250013 0.690007,0 1.250012,0.5600059 1.250012,1.250013 v 3.7500388 h 3.75004 c 0.690007,0 1.250013,0.560007 1.250013,1.250014 z"
     id="XMLID_230_"
     inkscape:connector-curvature="0"
     style="stroke-width:1.25001299" /></svg>